<svg viewBox="34.38288770053476 103.44584 258.02959001782534 257.85056000000003" xmlns="http://www.w3.org/2000/svg" style="max-height: 500px" width="258.02959001782534" height="257.85056000000003">
  <defs>
    <clipPath id="906b7354b2">
      <path clip-rule="nonzero" d="M 319.417969 331.566406 L 463.417969 331.566406 L 463.417969 475.5625 L 319.417969 475.5625 Z M 319.417969 331.566406"/>
    </clipPath>
    <clipPath id="b8520fd234">
      <path clip-rule="nonzero" d="M 391.417969 331.566406 C 351.652344 331.566406 319.417969 363.800781 319.417969 403.566406 C 319.417969 443.328125 351.652344 475.566406 391.417969 475.566406 C 431.183594 475.566406 463.417969 443.328125 463.417969 403.566406 C 463.417969 363.800781 431.183594 331.566406 391.417969 331.566406 Z M 391.417969 331.566406"/>
    </clipPath>
    <clipPath id="b74128e3d0">
      <path clip-rule="nonzero" d="M 266.730469 278.878906 L 515.730469 278.878906 L 515.730469 528.25 L 266.730469 528.25 Z M 266.730469 278.878906"/>
    </clipPath>
    <clipPath id="5aacf17de9">
      <path clip-rule="nonzero" d="M 391.417969 278.878906 C 322.554688 278.878906 266.730469 334.703125 266.730469 403.566406 C 266.730469 472.425781 322.554688 528.25 391.417969 528.25 C 460.28125 528.25 516.105469 472.425781 516.105469 403.566406 C 516.105469 334.703125 460.28125 278.878906 391.417969 278.878906 Z M 391.417969 278.878906"/>
    </clipPath>
  </defs>
  <g transform="matrix(1, 0, 0, 1, -231.329269, -174.39003)" clip-path="url(#906b7354b2)">
    <g clip-path="url(#b8520fd234)">
      <path stroke-miterlimit="4" stroke-opacity="1" stroke-width="80" stroke="#000000" d="M 96.000019 0.00260124 C 42.979183 0.00260124 0.0000141297 42.98177 0.0000141297 95.997398 C 0.0000141297 149.018234 42.979183 191.997403 96.000019 191.997403 C 149.020855 191.997403 192.000024 149.018234 192.000024 95.997398 C 192.000024 42.98177 149.020855 0.00260124 96.000019 0.00260124 Z M 96.000019 0.00260124" stroke-linejoin="miter" fill="none" transform="matrix(0.75, 0, 0, 0.75, 319.417958, 331.564455)" stroke-linecap="butt"/>
    </g>
  </g>
  <g transform="matrix(1, 0, 0, 1, -231.329269, -174.39003)" clip-path="url(#b74128e3d0)">
    <g clip-path="url(#5aacf17de9)">
      <path stroke-miterlimit="4" stroke-opacity="1" stroke-width="80" stroke="#000000" d="M 166.250019 0.00259771 C 74.432306 0.00259771 0.0000105955 74.434893 0.0000105955 166.247398 C 0.0000105955 258.065111 74.432306 332.497406 166.250019 332.497406 C 258.067732 332.497406 332.500027 258.065111 332.500027 166.247398 C 332.500027 74.434893 258.067732 0.00259771 166.250019 0.00259771 Z M 166.250019 0.00259771" stroke-linejoin="miter" fill="none" transform="matrix(0.75, 0, 0, 0.75, 266.730461, 278.876958)" stroke-linecap="butt"/>
    </g>
  </g>
  <path stroke-miterlimit="4" stroke-opacity="1" stroke-width="40" stroke="#000000" d="M 197.401 266.489 L 276.714 345.801" stroke-linejoin="miter" fill="none" stroke-linecap="butt"/>
</svg>